<?xml version="1.0" encoding="UTF-8" standalone="no"?>
<!-- Created with Inkscape (http://www.inkscape.org/) -->

<svg
   width="126mm"
   height="205mm"
   viewBox="0 0 126 205"
   version="1.1"
   id="svg5"
   xmlns="http://www.w3.org/2000/svg"
   xmlns:svg="http://www.w3.org/2000/svg">
  <defs
     id="defs2" />
  <g
     id="layer1">
    <g
       id="g836"
       transform="translate(-31.377743,-37.967987)">
      <path
         style="fill:#faf12d;stroke-width:0.264583"
         d="m 94.791199,165.89403 c -0.232317,-4.23053 -1.053732,-6.81706 -3.124046,-9.83725 -0.416989,-0.6083 -0.758158,-1.1576 -0.758158,-1.22065 0,-0.22068 2.795389,0.38801 4.702834,1.02403 4.250224,1.4172 8.433821,4.06818 11.929291,7.55913 1.91687,1.91438 4.1616,4.92095 3.88156,5.1989 -0.10321,0.10244 -3.85155,0.18626 -8.32965,0.18626 H 94.951024 Z M 71.160015,155.20396 c -1.599311,-0.40709 -2.68355,-1.3114 -3.449611,-2.87717 -0.665509,-1.36026 -0.743641,-1.8251 -0.831525,-4.94725 -0.112873,-4.00994 0.248254,-5.97348 1.660965,-9.03111 1.129122,-2.44384 4.967052,-7.71145 7.730434,-10.61014 l 2.071008,-2.17241 17.357215,-0.0766 17.357219,-0.0765 1.16361,1.57641 c 2.94356,3.98776 6.05983,11.87582 6.63779,16.80188 0.81331,6.93199 -1.3499,10.09256 -7.45854,10.89737 -4.83885,0.63751 -9.5179,-0.0609 -14.714277,-2.19634 -1.950765,-0.80165 -2.333276,-0.8644 -5.869115,-0.96277 -4.496663,-0.12509 -6.057704,0.11256 -10.876476,1.65581 -6.118363,1.95946 -8.937472,2.48747 -10.778697,2.01882 z m -6.973938,-24.19124 c -1.42377,-0.32834 -4.696762,-1.93488 -5.628648,-2.76281 -0.736457,-0.65429 -0.198916,-0.78551 4.015536,-0.98023 2.124139,-0.0981 5.290821,-0.33777 7.037071,-0.53253 1.74625,-0.19476 3.219063,-0.31007 3.272922,-0.25625 0.227634,0.2275 -0.272338,1.42418 -1.034732,2.47663 -0.491477,0.67847 -1.262425,1.32648 -1.925762,1.6187 -1.495185,0.65865 -3.959839,0.84619 -5.736387,0.43649 z m 57.903703,-0.7915 c -0.67688,-0.19127 -1.5403,-0.55063 -1.91873,-0.79859 -0.82815,-0.54262 -1.9072,-2.13289 -2.16512,-3.19089 l -0.18735,-0.76855 1.03115,0.18725 c 1.62715,0.29547 6.01313,0.67366 9.76239,0.84179 1.89177,0.0848 3.60462,0.20656 3.80633,0.27052 0.68684,0.21776 -0.53583,1.18453 -3.01258,2.38204 -2.74697,1.32816 -5.16582,1.68405 -7.31609,1.07643 z M 55.005812,102.98934 C 50.22892,94.109979 48.906629,83.243205 51.332935,72.805117 c 0.753103,-3.239884 2.899262,-9.172546 3.318197,-9.172546 0.109102,0 1.039718,1.696641 2.068037,3.770313 2.1823,4.400754 5.051077,8.89445 6.980821,10.934869 0.749184,0.792152 1.292021,1.510412 1.206304,1.596129 -0.08572,0.08572 -0.90791,-0.0232 -1.827096,-0.242023 -2.600129,-0.619011 -3.35824,-0.715989 -3.522276,-0.450575 -0.196869,0.31854 1.633664,3.3249 3.283889,5.393275 1.374601,1.722906 4.2003,4.514041 6.703079,6.621079 2.032717,1.711304 2.051727,2.330485 0.117361,3.822838 -1.518121,1.171223 -4.162285,4.022916 -5.985854,6.455654 L 62.535,103.05549 h -1.910535 c -1.050795,0 -2.495007,0.1773 -3.209358,0.39401 -1.777148,0.53912 -1.882538,0.51899 -2.409295,-0.46016 z m 78.765688,-0.23173 c -0.8298,-0.26432 -2.32581,-0.47049 -3.48091,-0.47971 l -2.02571,-0.0162 -0.90327,-1.25677 c -1.52564,-2.122704 -4.67955,-5.540253 -6.18396,-6.7009 -2.07952,-1.604336 -2.0017,-2.040171 0.79251,-4.438881 2.95048,-2.532856 5.89708,-5.643372 7.32475,-7.732226 1.13949,-1.667192 2.09534,-3.286842 2.09534,-3.550475 0,-0.272741 -1.77672,-0.120822 -3.51243,0.300334 -0.98595,0.239233 -1.86811,0.359486 -1.96037,0.267231 -0.0923,-0.09225 0.49915,-0.866896 1.31424,-1.721429 2.37349,-2.488364 5.61765,-7.761666 7.95838,-12.936157 0.41143,-0.909505 0.84684,-1.653646 0.96759,-1.653646 0.27418,0 2.14999,4.793697 2.84716,7.276042 1.24409,4.429678 1.64584,7.271224 1.64584,11.640937 0,7.546472 -1.38394,13.900388 -4.22364,19.39143 -1.14245,2.20912 -1.01622,2.13257 -2.65552,1.61038 z"
         id="path844" />
      <path
         style="fill:#fb28a4;stroke-width:0.264583"
         d="m 56.386871,126.1718 c -1.521019,-1.86721 -2.114476,-3.01155 -2.987491,-5.76064 -0.597537,-1.88163 -0.681612,-2.60868 -0.691353,-5.97859 -0.0088,-3.04639 0.08441,-4.08165 0.452661,-5.02708 0.786273,-2.01867 1.717856,-3.11282 3.320365,-3.8998 1.349578,-0.66277 1.721935,-0.72471 4.020773,-0.66884 2.863791,0.0696 4.143195,0.43833 6.155595,1.77409 2.28801,1.51869 3.439374,3.3549 4.803957,7.6614 1.130501,3.56775 1.980877,8.34119 1.843241,10.34669 -0.02996,0.43656 -0.06983,1.06867 -0.08859,1.40468 -0.01876,0.33601 -0.128156,0.55281 -0.243091,0.48177 -0.114938,-0.071 -1.037672,-0.0211 -2.050521,0.11087 -1.012852,0.13201 -3.925142,0.36106 -6.471756,0.509 -2.546615,0.14794 -5.125099,0.33477 -5.729965,0.41519 -1.07737,0.14323 -1.124878,0.11537 -2.333825,-1.36874 z m 76.126619,0.96077 c 0.0558,-0.32856 -0.52466,-0.42731 -3.3722,-0.57372 -4.17489,-0.21467 -9.19149,-0.67424 -10.45104,-0.95743 -0.91871,-0.20655 -0.92669,-0.22071 -1.0078,-1.78592 -0.18952,-3.6575 1.41355,-10.79722 3.21275,-14.30887 0.84658,-1.65235 2.82609,-3.55599 4.63684,-4.45913 1.75747,-0.87656 5.59325,-1.35776 7.28042,-0.91333 4.02933,1.06141 5.62946,4.08251 5.38451,10.16611 -0.13449,3.34038 -0.82687,6.23698 -2.1003,8.78679 -0.63098,1.26341 -3.69892,4.7272 -3.58318,4.0455 z M 81.111354,122.537 c 3.904589,-4.39573 7.965261,-7.65678 11.037023,-8.86362 0.700789,-0.27533 2.189382,-0.68921 3.30799,-0.91973 1.794558,-0.36983 2.183646,-0.37432 3.307292,-0.0382 3.587231,1.07305 7.518181,4.37043 12.613661,10.58066 l 1.51963,1.85209 -1.13825,0.17882 c -0.62603,0.0984 -8.37899,0.18766 -17.228785,0.19844 l -16.090537,0.0196 z m -32.932569,-4.57022 c -2.624445,-1.32628 -6.92017,-3.99837 -8.570865,-5.33138 -1.177545,-0.95092 -0.52253,-1.20604 2.581256,-1.00538 l 2.797586,0.18087 -2.005674,-2.0626 c -3.318586,-3.41276 -6.00487,-8.08293 -7.451709,-12.95497 -0.332475,-1.119563 -0.344605,-1.450284 -0.06711,-1.829779 0.309704,-0.423545 0.504742,-0.323464 2.277231,1.168532 1.066185,0.897462 2.005723,1.631501 2.087861,1.631194 0.08214,-2.65e-4 0.157841,-4.078195 0.168229,-9.06198 0.02567,-12.315566 0.675623,-18.066134 3.165623,-28.008274 2.083016,-8.317127 5.032324,-15.762839 7.23286,-18.259807 1.308796,-1.485103 2.492493,-2.083969 4.119095,-2.083969 2.249386,0 4.662383,1.79618 6.931124,5.159375 1.298228,1.924501 6.035953,10.08704 9.214215,15.875001 3.71171,6.759427 6.378491,10.672731 9.756064,14.3163 l 1.743572,1.880886 -1.699006,0.158655 c -2.229411,0.208187 -3.355874,0.82024 -5.365207,2.915134 -2.527009,2.634615 -3.89944,6.110679 -4.060114,10.283378 l -0.05809,1.508517 -1.33984,-1.111642 c -2.340634,-1.941989 -5.449239,-5.004644 -6.79014,-6.689775 -1.658924,-2.084798 -3.485364,-5.085776 -3.288826,-5.403782 0.164036,-0.265414 0.922147,-0.168436 3.522276,0.450575 0.919186,0.218832 1.741379,0.32774 1.827096,0.242023 0.08572,-0.08572 -0.45712,-0.803977 -1.206304,-1.596129 -1.929744,-2.040419 -4.798521,-6.534115 -6.980821,-10.934869 -1.028319,-2.073672 -1.958935,-3.770313 -2.068037,-3.770313 -0.418935,0 -2.565094,5.932662 -3.318197,9.172546 -1.790088,7.701048 -1.488996,16.301922 0.827423,23.635789 0.706168,2.235753 2.903702,7.034534 3.34676,7.308364 0.127529,0.0788 -0.236516,0.4826 -0.808989,0.8973 -1.407082,1.01928 -2.326362,2.28209 -3.010811,4.13594 -0.48184,1.30508 -0.573968,2.13236 -0.58501,5.25319 -0.0072,2.03729 0.07321,4.09112 0.178717,4.56406 0.105502,0.47294 0.105502,0.85492 0,0.84885 -0.105503,-0.006 -1.501511,-0.6729 -3.10224,-1.48183 z m 91.476315,-0.68994 c 0.14032,-0.76398 0.20203,-2.87734 0.13715,-4.69635 -0.15557,-4.361 -0.70324,-5.88622 -2.86274,-7.97253 l -1.54251,-1.49024 0.8914,-1.68476 c 2.94056,-5.557712 4.37226,-12.001015 4.37226,-19.67716 0,-4.369713 -0.40175,-7.211259 -1.64584,-11.640937 -0.69717,-2.482345 -2.57298,-7.276042 -2.84716,-7.276042 -0.12075,0 -0.55616,0.744141 -0.96759,1.653646 -2.34073,5.174491 -5.58489,10.447793 -7.95838,12.936157 -0.81509,0.854533 -1.40649,1.629175 -1.31424,1.721429 0.0923,0.09225 0.97442,-0.028 1.96037,-0.267231 1.73571,-0.421156 3.51243,-0.573075 3.51243,-0.300334 0,0.260567 -0.95028,1.875131 -2.053,3.48814 -1.46063,2.136544 -3.57395,4.407408 -6.67278,7.170243 l -2.50807,2.236123 -0.53464,-3.281492 c -0.67563,-4.14682 -1.60088,-6.139403 -3.91714,-8.435745 -2.03591,-2.018409 -3.27118,-2.665651 -5.41601,-2.837818 l -1.67032,-0.134078 1.80794,-1.88129 c 3.70553,-3.855858 6.5763,-8.210868 11.70475,-17.756292 1.8116,-3.371874 5.79527,-10.147378 7.18708,-12.223925 2.42426,-3.616939 4.70879,-5.353186 7.05928,-5.365056 2.45691,-0.01241 4.28637,1.664144 6.38046,5.847158 2.23992,4.474308 5.40812,15.058826 6.61509,22.100084 1.20066,7.004423 2.04833,20.162634 1.69767,26.352678 -0.0969,1.70987 -0.10277,3.108854 -0.0131,3.108854 0.0896,0 1.01019,-0.729173 2.04567,-1.620382 1.68082,-1.446639 1.92562,-1.577451 2.28307,-1.220007 0.35744,0.357447 0.3547,0.557495 -0.0256,1.865709 -1.33929,4.607028 -3.9414,9.175908 -7.1411,12.538628 l -2.35308,2.47298 2.94839,-0.17908 c 2.57555,-0.15643 2.94839,-0.12669 2.94839,0.23515 0,0.8443 -5.98378,4.76995 -10.19824,6.69054 -1.10105,0.50176 -2.03859,0.9123 -2.08342,0.9123 -0.0448,0 0.0333,-0.62508 0.1736,-1.38907 z m -58.593741,-6.53217 c -1.694366,-0.66238 -3.114556,-1.83745 -4.585121,-3.79373 -2.872486,-3.82125 -3.684529,-6.92323 -3.686384,-14.08191 -0.0011,-4.275026 0.06068,-4.942178 0.603702,-6.517923 0.750666,-2.178296 1.982833,-3.938265 3.906407,-5.579711 1.532207,-1.307486 1.737026,-1.367832 4.348615,-1.281223 2.418813,0.08021 3.786748,0.670107 5.239165,2.259285 4.818372,5.272064 6.989043,12.313129 5.766247,18.704112 -0.527227,2.75557 -1.303416,4.80792 -2.523942,6.67365 -2.297859,3.51257 -5.78194,4.90235 -9.068689,3.61745 z m 24.087441,-0.68292 c -1.93247,-0.61943 -3.97907,-2.66768 -5.243242,-5.24744 -1.487828,-3.03618 -1.951998,-5.043385 -1.966957,-8.505696 -0.02215,-5.123585 1.380233,-9.298165 4.532979,-13.493751 2.00487,-2.668024 2.54863,-3.150721 4.15478,-3.68823 1.74894,-0.585291 4.9686,-0.615281 5.82483,-0.05426 2.63746,1.728134 4.85963,5.035664 5.44821,8.109257 0.35812,1.870118 0.34772,8.130144 -0.0169,10.185313 -0.15492,0.873125 -0.35157,2.06375 -0.437,2.645837 -0.48759,3.32199 -3.96172,8.12905 -6.99239,9.67518 -1.42891,0.72898 -3.69748,0.88885 -5.30429,0.37379 z"
         id="path842" />
      <path
         style="fill:#278dfa;stroke-width:0.264583"
         d="m 98.581911,241.16811 c -8.096856,-1.76281 -17.907886,-5.74482 -21.828125,-8.8594 -5.100556,-4.05233 -7.692205,-9.71535 -7.99881,-17.47822 -0.116504,-2.94974 -0.05424,-3.77607 0.428607,-5.68854 0.643639,-2.54933 2.005142,-5.57837 3.346797,-7.44585 0.503862,-0.70134 0.916276,-1.30466 0.916474,-1.3407 1.98e-4,-0.036 -1.428552,-0.0258 -3.175,0.0228 -3.885404,0.10805 -4.070983,-0.16085 -1.257131,-1.8216 6.167464,-3.64007 15.76945,-11.1706 19.81498,-15.54026 2.291805,-2.47542 4.376806,-6.85364 5.62511,-11.81195 l 0.6042,-2.39991 h 8.337717 8.33771 l 0.76593,1.14118 c 0.91727,1.36668 2.68447,2.72585 4.70734,3.62046 0.81539,0.3606 1.48254,0.76163 1.48254,0.89117 0,0.4707 -0.74254,0.83199 -2.01107,0.97851 -2.61296,0.3018 -2.49184,0.20419 -2.02942,1.63555 0.29229,0.90476 0.41421,2.48429 0.43406,5.62376 l 0.0276,4.36562 -1.13958,3.38755 c -0.62676,1.86315 -1.91215,5.25644 -2.85641,7.54063 -4.70645,11.38503 -5.20993,13.06335 -5.2145,17.38224 -0.005,4.30192 1.09348,8.69774 2.79542,11.19112 1.68938,2.47498 3.61774,3.88696 6.74852,4.94139 2.49132,0.83907 2.48035,0.99218 -0.19421,2.71207 -3.92207,2.52212 -8.35068,3.97211 -12.89844,4.22312 -1.63711,0.0904 -2.973489,0.23537 -2.969735,0.32225 0.0038,0.0869 0.599064,0.55971 1.322915,1.05072 0.79337,0.53818 1.31609,1.08988 1.31609,1.38907 0,0.61896 -0.46661,0.61451 -3.439579,-0.0328 z"
         id="path840" />
      <path
         style="fill:#010001;stroke-width:0.264583"
         d="M 31.377743,140.89091 V 37.967987 h 63.36771 63.367707 V 140.89091 243.81383 H 94.745453 31.377743 Z m 70.643747,100.30994 c 0,-0.29918 -0.52272,-0.85088 -1.31609,-1.38906 -0.723851,-0.49101 -1.319163,-0.96384 -1.322915,-1.05072 -0.0038,-0.0869 1.332625,-0.23189 2.969735,-0.32225 4.54776,-0.25101 8.97637,-1.701 12.89844,-4.22312 2.67456,-1.71989 2.68553,-1.873 0.19421,-2.71207 -3.13078,-1.05443 -5.05914,-2.46641 -6.74852,-4.94139 -1.70194,-2.49338 -2.79997,-6.8892 -2.79542,-11.19112 0.005,-4.31889 0.50805,-5.99721 5.2145,-17.38224 0.94426,-2.28419 2.22965,-5.67748 2.85641,-7.54063 l 1.13958,-3.38755 -0.0276,-4.36562 c -0.0199,-3.13947 -0.14177,-4.719 -0.43406,-5.62376 -0.46242,-1.43136 -0.58354,-1.33375 2.02942,-1.63555 1.26853,-0.14652 2.01107,-0.50781 2.01107,-0.97851 0,-0.12954 -0.65791,-0.52648 -1.46203,-0.8821 -2.60921,-1.15392 -3.72274,-2.16838 -5.80327,-5.28698 -3.9765,-5.96054 -9.54716,-10.3387 -15.813121,-12.42802 -1.907445,-0.63602 -4.702834,-1.24471 -4.702834,-1.02403 0,0.0631 0.341169,0.61235 0.758158,1.22065 2.331103,3.40063 3.042163,5.9301 3.062859,10.89559 0.01447,3.47429 -0.03796,3.87106 -0.84514,6.39356 -1.241512,3.87983 -3.233931,7.70323 -5.019001,9.63132 -4.081174,4.40815 -13.657882,11.92402 -19.851148,15.57932 -2.813852,1.66075 -2.628273,1.92965 1.257131,1.8216 1.746448,-0.0486 3.175198,-0.0588 3.175,-0.0228 -1.98e-4,0.036 -0.412612,0.63936 -0.916474,1.3407 -1.341655,1.86748 -2.703158,4.89651 -3.346797,7.44585 -0.482849,1.91247 -0.545111,2.7388 -0.428607,5.68854 0.306605,7.76287 2.898254,13.42589 7.99881,17.47822 3.920239,3.11458 13.731269,7.09659 21.828125,8.8594 2.972969,0.64726 3.439579,0.65171 3.439579,0.0327 z M 76.753786,154.74243 c 0.873125,-0.22285 3.206342,-0.92363 5.184926,-1.55729 4.818772,-1.54325 6.379813,-1.7809 10.876476,-1.65581 3.535839,0.0984 3.91835,0.16112 5.869115,0.96277 3.678077,1.51149 6.409297,2.18122 9.554897,2.34297 5.9866,0.30785 10.02978,-0.87817 11.58579,-3.39854 3.05093,-4.94181 -0.0846,-17.10398 -6.65174,-25.80098 -5.63198,-7.45854 -10.37826,-11.7142 -14.409591,-12.9201 -1.123646,-0.33612 -1.512734,-0.33163 -3.307292,0.0382 -1.118608,0.23052 -2.607201,0.6444 -3.30799,0.91973 -3.03824,1.19368 -7.094736,4.4377 -11.00083,8.79747 -1.449684,1.61806 -3.606097,3.95396 -4.792031,5.19089 -2.822665,2.94403 -6.667015,8.20057 -7.815672,10.68669 -1.412711,3.05763 -1.773838,5.02117 -1.660965,9.03111 0.08788,3.12215 0.166016,3.58699 0.831525,4.94725 0.766061,1.56577 1.8503,2.47008 3.449611,2.87717 1.052259,0.26783 3.540472,0.0625 5.593771,-0.46153 z m -6.850468,-24.15774 c 1.791933,-0.78931 3.171704,-3.0234 3.375089,-5.46485 0.337624,-4.05289 -2.013627,-13.24878 -4.111533,-16.08045 -1.18642,-1.60138 -3.203741,-3.10796 -5.019288,-3.74852 -0.614194,-0.2167 -2.246837,-0.42002 -3.64576,-0.45402 -2.298838,-0.0559 -2.671195,0.006 -4.020773,0.66884 -1.602509,0.78698 -2.534092,1.88113 -3.320365,3.8998 -0.368248,0.94543 -0.461467,1.98069 -0.452661,5.02708 0.0098,3.39129 0.0918,4.09096 0.706656,6.02971 0.382561,1.20629 1.027861,2.80601 1.434,3.55493 1.633298,3.0118 5.87339,6.18717 9.337394,6.99271 1.76752,0.41102 4.235477,0.22747 5.717241,-0.42523 z m 59.625332,-1.49603 c 5.60981,-2.7051 8.37151,-7.41663 8.66832,-14.78838 0.24495,-6.0836 -1.35518,-9.1047 -5.38451,-10.16611 -1.68717,-0.44443 -5.52295,0.0368 -7.28042,0.91333 -2.79865,1.39587 -4.65545,3.74767 -5.81842,7.36955 -4.01674,12.50946 -2.19056,18.53324 5.45892,18.00659 1.49961,-0.10324 2.32863,-0.35731 4.35611,-1.33498 z M 51.345267,118.99664 c -0.37344,-0.87583 -0.46444,-6.64375 -0.131614,-8.34218 0.982178,-5.01212 4.18099,-7.59897 9.396631,-7.59897 H 62.535 l 1.140397,-1.52136 c 1.81673,-2.423616 4.465757,-5.282907 5.968571,-6.442319 l 1.386708,-1.06984 0.0082,-2.203371 c 0.01744,-4.698288 1.336429,-8.329602 4.055073,-11.164012 2.009333,-2.094894 3.135797,-2.706947 5.365208,-2.915134 l 1.699006,-0.158655 -1.743573,-1.880886 c -3.37757,-3.643569 -6.044351,-7.556873 -9.756061,-14.3163 -3.178262,-5.787961 -7.915987,-13.9505 -9.214215,-15.875001 -2.268741,-3.363195 -4.681738,-5.159375 -6.931124,-5.159375 -1.626602,0 -2.810299,0.598866 -4.119095,2.083969 -2.200536,2.496968 -5.149844,9.94268 -7.23286,18.259807 -2.49,9.94214 -3.139955,15.692708 -3.165623,28.008274 -0.01039,4.983785 -0.08609,9.061675 -0.168229,9.06198 -0.08214,2.64e-4 -1.021676,-0.733732 -2.087861,-1.631194 -1.772489,-1.491996 -1.967527,-1.592077 -2.277231,-1.168532 -0.277493,0.379495 -0.265363,0.710216 0.06711,1.829779 1.446839,4.87204 4.133123,9.54221 7.451709,12.95497 l 2.005674,2.0626 -2.797586,-0.18087 c -3.103786,-0.20066 -3.758801,0.0545 -2.581256,1.00538 2.3632,1.90839 10.708089,6.7645 11.708027,6.81321 0.12471,0.006 0.137904,-0.19731 0.02932,-0.45197 z m 90.219653,-1.24303 c 4.21446,-1.92059 10.19824,-5.84624 10.19824,-6.69054 0,-0.36184 -0.37284,-0.39158 -2.94839,-0.23515 l -2.9484,0.17908 2.35309,-2.47298 c 3.19969,-3.36272 5.8018,-7.9316 7.1411,-12.538628 0.38031,-1.308214 0.38306,-1.508262 0.0256,-1.865709 -0.35745,-0.357444 -0.60225,-0.226632 -2.28307,1.220007 -1.03548,0.891209 -1.95603,1.620382 -2.04567,1.620382 -0.0896,0 -0.0837,-1.398984 0.0131,-3.108854 0.35065,-6.190044 -0.49702,-19.348255 -1.69767,-26.352678 -1.75733,-10.251943 -6.00869,-22.522555 -8.96821,-25.884745 -3.23749,-3.677988 -7.19881,-2.497962 -11.08662,3.302559 -1.39181,2.076547 -5.37548,8.852051 -7.18708,12.223925 -5.12845,9.545424 -7.99922,13.900434 -11.70475,17.756292 l -1.80794,1.88129 1.67032,0.134078 c 2.14775,0.172402 3.38012,0.81943 5.42836,2.850052 2.21653,2.197463 3.31436,4.500068 3.88501,8.148503 0.24625,1.574422 0.35571,3.255155 0.25931,3.981849 l -0.16681,1.257472 1.45612,1.123387 c 1.52756,1.17851 4.67542,4.585224 6.21101,6.721768 l 0.90327,1.25677 h 1.93169 c 2.97971,0 5.15568,0.7806 6.87289,2.46555 2.00503,1.96737 2.57106,3.59995 2.72279,7.8532 0.0649,1.81901 0.003,3.93237 -0.13715,4.69635 -0.14031,0.76399 -0.21843,1.38907 -0.1736,1.38907 0.0448,0 0.98237,-0.41054 2.08342,-0.9123 z m -55.813105,-6.97154 c 3.404034,-1.17711 5.852145,-4.84049 6.902175,-10.3285 1.222796,-6.390983 -0.947875,-13.432048 -5.766247,-18.704112 -1.452417,-1.589178 -2.820352,-2.179072 -5.239165,-2.259285 -2.611589,-0.08661 -2.816408,-0.02627 -4.348615,1.281223 -1.923574,1.641446 -3.155741,3.401415 -3.906407,5.579711 -0.543017,1.575745 -0.604811,2.242897 -0.603702,6.517923 0.0019,7.15868 0.813898,10.26066 3.686384,14.08191 2.793955,3.71678 5.898311,4.99899 9.275577,3.83113 z m 24.701275,-1.09411 c 3.03067,-1.54613 6.5048,-6.35319 6.99239,-9.67518 0.0854,-0.582083 0.28208,-1.772708 0.437,-2.645833 0.36464,-2.055169 0.37504,-8.315195 0.0169,-10.185313 -0.58858,-3.073593 -2.81075,-6.381123 -5.44821,-8.109257 -0.85623,-0.561025 -4.07589,-0.531035 -5.82483,0.05426 -1.60615,0.537509 -2.14991,1.020206 -4.15478,3.68823 -3.152745,4.195586 -4.555119,8.370166 -4.532979,13.493751 0.01495,3.462311 0.479129,5.469512 1.966958,8.505692 1.264171,2.57976 3.310771,4.62801 5.243241,5.24744 1.60681,0.51506 3.87538,0.35519 5.30429,-0.37379 z"
         id="path838" />
    </g>
  </g>
</svg>
