<svg width="778" height="479" viewBox="0 0 778 479" fill="none" xmlns="http://www.w3.org/2000/svg">
<path d="M483.5 239.327C467.511 240.205 457.735 243.31 446.32 251.135C444.021 252.711 441.945 254 441.706 254C440.872 254 443.173 243.435 445.577 236.225C450.933 220.162 460.953 204.35 474.147 191.138C481.382 183.894 492.746 175.41 493.796 176.468C494.183 176.858 494.5 191.025 494.5 207.95V238.723L483.5 239.327ZM443.097 328.642C441.558 334.686 438.14 338.784 432.222 341.68C427.081 344.195 425.324 344.49 413.524 344.822C398.368 345.249 390.947 343.884 379.391 338.545C370.154 334.277 350.245 319.772 339.289 309.327L331.079 301.5L330.789 235.898L330.5 170.296L336.458 165.898C351.53 154.773 381.343 142.995 399.961 140.81C426.161 137.736 438.106 145.912 441.148 169C443.558 187.289 440.918 204.973 432.847 224.613C429.817 231.986 429.58 233.432 429.208 246.795C428.735 263.791 429.634 269.691 435.466 287.903C442.872 311.028 444.868 321.683 443.097 328.642V328.642ZM351.665 355C350.424 360.381 344.352 372.752 341.223 376.274C338.75 379.057 338.254 377.025 337.518 361.097C337.147 353.069 336.242 341.1 335.506 334.5C334.769 327.9 334.334 322.333 334.537 322.13C335.397 321.27 339.92 323.159 343.898 326.041C346.462 327.898 348.911 330.812 350.015 333.319C352.505 338.97 353.214 348.285 351.665 355V355ZM348.674 136.151C347.951 138.71 346.593 141.973 345.655 143.403C343.605 146.533 337.594 150.612 333.595 151.586L330.691 152.294L331.398 148.397C332.515 142.247 333.944 125.67 334.58 111.5C334.9 104.35 335.361 97.8762 335.602 97.1138C336.425 94.5179 340.079 99.139 344.605 108.5C349.625 118.882 350.97 128.024 348.674 136.151ZM245.75 389.697C212.19 407.751 171.119 412.749 131.668 403.579C119.423 400.732 97 392.621 97 391.038C97 390.625 103.413 387.108 111.25 383.221C127.883 374.973 144.867 364.131 152.579 356.837C155.573 354.006 158.287 351.954 158.611 352.278C158.935 352.602 158.524 355.709 157.697 359.183C155.357 369.011 154.99 371.876 155.994 372.496C157.198 373.24 168.56 366.322 176.378 360.084C182.889 354.889 193.439 344.209 201.402 334.75C207.87 327.067 210.21 326.995 215.851 334.306C220.277 340.044 231.055 350.038 240.25 356.93L246 361.24V368.461C246 372.433 246.67 377.891 247.489 380.591C249.527 387.308 249.451 387.706 245.75 389.697V389.697ZM244.874 92C243.875 95.1362 243.096 100.79 243.061 105.156L243 112.812L238.25 116.226C230.227 121.993 217.31 133.913 212.924 139.599C206.86 147.458 205.213 147.164 196.147 136.603C186.574 125.452 174.817 114.315 166.923 108.919C160.621 104.613 154.5 101 153.504 101C152.473 101 153.047 107.715 154.639 114.275C155.543 118.002 155.997 121.336 155.649 121.685C155.3 122.033 152.372 119.798 149.142 116.717C139.738 107.747 119.807 95.4853 100.25 86.6385C96.8124 85.0835 93.9999 83.4378 93.9999 82.9814C93.9999 81.9452 112.118 74.8555 121.5 72.2205C138.242 67.5184 148.982 66 165.497 66C194.019 66 218.034 71.2306 238.788 81.9634C247.137 86.2813 246.848 85.8042 244.874 92H244.874Z" fill="#FAF12D"/>
<path d="M333.369 384.477C326.312 390.226 321.987 392.469 311.596 395.769C304.485 398.027 301.737 398.345 289 398.382C277.486 398.415 273.573 398.063 270 396.671C262.37 393.699 258.235 390.178 255.261 384.121C252.756 379.021 252.522 377.613 252.733 368.925C252.996 358.101 254.389 353.265 259.438 345.659C265.178 337.012 272.118 332.66 288.394 327.503C301.879 323.23 319.92 320.016 327.5 320.536C329.15 320.649 331.539 320.8 332.809 320.871C334.079 320.942 334.898 321.355 334.63 321.79C334.362 322.224 334.55 325.712 335.049 329.54C335.548 333.368 336.414 344.375 336.973 354C337.532 363.625 338.238 373.37 338.542 375.657C339.083 379.729 338.978 379.908 333.369 384.477ZM337 96.7547C335.758 96.5438 335.385 98.7376 334.832 109.5C334.02 125.279 332.283 144.239 331.213 149C330.432 152.472 330.379 152.502 324.463 152.809C310.639 153.525 283.655 147.466 270.382 140.666C264.137 137.467 256.942 129.985 253.529 123.141C250.216 116.499 248.397 102.001 250.077 95.6247C254.089 80.3957 265.507 74.348 288.5 75.2738C301.125 75.7821 312.073 78.399 321.71 83.2119C326.485 85.5967 339.577 97.1921 337 96.7547ZM319.631 291.03C303.017 276.273 290.692 260.926 286.131 249.316C285.09 246.667 283.526 241.041 282.654 236.813C281.257 230.03 281.24 228.56 282.51 224.313C286.566 210.755 299.028 195.898 322.5 176.639L329.5 170.896L330.176 175.198C330.548 177.564 330.885 206.867 330.926 240.315L331 301.129L319.631 291.03ZM302.358 415.5C297.345 425.419 287.246 441.655 282.208 447.894C278.614 452.344 277.649 449.869 278.408 438.138L279.091 427.564L271.296 435.145C258.397 447.688 240.746 457.84 222.332 463.309C218.101 464.565 216.851 464.611 215.416 463.562C213.815 462.392 214.194 461.655 219.833 454.956C223.225 450.926 225.999 447.375 225.998 447.064C225.997 446.754 210.584 446.468 191.748 446.429C145.201 446.332 123.466 443.875 85.8899 434.464C54.4551 426.591 26.3138 415.444 16.8764 407.127C11.2634 402.181 9.00002 397.707 9.00002 391.559C9.00002 383.057 15.7887 373.937 28.5 365.363C35.7737 360.456 66.6243 342.55 88.5 330.537C114.047 316.509 128.838 306.43 142.609 293.664L149.718 287.074L150.317 293.496C151.104 301.922 153.417 306.179 161.335 313.773C171.293 323.324 184.431 328.512 200.202 329.119L205.903 329.338L201.702 334.402C194.362 343.249 182.786 354.998 176.417 360.066C168.538 366.336 157.196 373.239 155.994 372.496C154.99 371.876 155.357 369.011 157.697 359.183C158.524 355.709 158.935 352.602 158.611 352.278C158.287 351.954 155.573 354.006 152.579 356.837C144.867 364.131 127.883 374.973 111.25 383.221C103.413 387.108 97 390.625 97 391.038C97 392.621 119.423 400.732 131.668 403.579C160.774 410.344 193.281 409.207 221 400.452C229.45 397.783 247.587 389.477 248.622 387.802C248.92 387.32 250.446 388.696 252.014 390.86C255.866 396.178 260.639 399.653 267.645 402.239C272.578 404.061 275.705 404.409 287.5 404.45C295.2 404.478 302.963 404.174 304.75 403.775C306.538 403.376 307.981 403.376 307.958 403.775C307.936 404.174 305.415 409.45 302.358 415.5V415.5ZM299.75 69.7627C296.863 69.2324 288.875 68.9992 282 69.2444C265.518 69.8324 259.753 71.9023 251.868 80.0642L246.235 85.8942L239.868 82.5251C218.862 71.4112 194.509 66 165.497 66C148.982 66 138.242 67.5184 121.5 72.2205C112.118 74.8555 94 81.9452 94 82.9814C94 83.4378 96.8125 85.0835 100.25 86.6385C119.807 95.4853 139.738 107.747 149.143 116.717C152.372 119.798 155.3 122.033 155.649 121.685C155.997 121.336 155.543 118.002 154.639 114.275C153.047 107.715 152.473 101 153.504 101C154.488 101 160.591 104.592 166.687 108.759C174.762 114.28 183.345 122.267 193.787 133.979L202.239 143.459L189.836 145.479C174.163 148.033 166.632 151.53 157.953 160.284C150.325 167.979 147.878 172.648 147.228 180.754L146.721 187.067L139.61 180.234C125.037 166.229 108.577 155.379 72.5 135.996C59.7559 129.149 34.1477 114.092 26.2994 108.832C12.629 99.6693 6.06685 91.0349 6.02199 82.1511C5.97508 72.8652 12.3117 65.9507 28.1215 58.036C45.0322 49.5702 85.0367 37.5958 111.649 33.0341C138.123 28.4961 187.855 25.2924 211.25 26.6177C217.713 26.9839 223 27.0061 223 26.6672C223 26.3285 220.244 22.8491 216.876 18.9355C211.408 12.5828 210.914 11.6576 212.265 10.3066C213.616 8.95566 214.372 8.96603 219.316 10.4034C236.729 15.4653 253.997 25.3 266.706 37.3934L276.053 46.2869L275.376 35.1434C274.785 25.409 274.897 23.9998 276.265 23.9998C279.456 23.9998 294.293 46.6157 301.552 62.5444C303.448 66.7058 305 70.2493 305 70.4187C305 70.588 302.638 70.2929 299.75 69.7626V69.7627ZM275.061 291.219C272.558 297.623 268.117 302.991 260.723 308.549C246.28 319.406 234.556 322.475 207.5 322.482C191.342 322.486 188.821 322.252 182.865 320.2C174.632 317.363 167.981 312.706 161.777 305.436C156.835 299.645 156.607 298.871 156.934 289C157.237 279.858 159.467 274.688 165.473 269.198C185.399 250.987 212.011 242.783 236.166 247.405C246.581 249.397 254.338 252.331 261.389 256.944C274.665 265.629 279.918 278.797 275.061 291.219V291.219ZM272.48 200.18C270.139 207.484 262.398 215.219 252.648 219.997C241.172 225.621 233.586 227.375 220.5 227.431C201.135 227.515 185.357 222.215 169.5 210.299C159.416 202.721 157.592 200.666 155.56 194.596C153.348 187.986 153.235 175.817 155.355 172.581C161.887 162.612 174.388 154.214 186.004 151.989C193.073 150.635 216.732 150.675 224.5 152.053C227.8 152.638 232.3 153.382 234.5 153.705C247.056 155.547 265.224 168.678 271.068 180.132C273.823 185.533 274.427 194.107 272.48 200.18V200.18Z" fill="#FB28A4"/>
<path d="M768 225C761.338 255.602 746.288 292.683 734.516 307.5C719.2 326.778 697.797 336.573 668.457 337.732C657.308 338.172 654.185 337.937 646.957 336.112C637.321 333.679 625.873 328.533 618.815 323.462C616.164 321.558 613.884 319.999 613.748 319.999C613.612 319.998 613.65 325.398 613.834 331.999C614.242 346.684 613.226 347.385 606.949 336.75C593.191 313.44 564.73 277.149 548.214 261.859C538.858 253.197 522.311 245.316 503.571 240.598L494.5 238.315V206.802V175.29L498.813 172.395C503.979 168.928 509.116 162.249 512.497 154.603C513.86 151.521 515.375 149 515.865 149C517.644 149 519.01 151.806 519.563 156.601C520.704 166.477 520.335 166.019 525.745 164.271C529.165 163.166 535.134 162.706 547 162.631L563.5 162.526L576.303 166.833C583.345 169.202 596.17 174.06 604.803 177.629C647.834 195.417 654.177 197.32 670.5 197.338C686.759 197.356 703.374 193.205 712.797 186.772C722.152 180.387 727.488 173.099 731.473 161.266C734.645 151.85 735.223 151.891 741.724 162C751.256 176.824 756.736 193.562 757.685 210.75C758.027 216.938 758.575 221.988 758.903 221.974C759.232 221.96 761.019 219.71 762.874 216.974C764.908 213.976 766.994 212 768.124 212C770.464 212 770.447 213.764 768 225H768Z" fill="#278DFA"/>
<path d="M389 479H0L0 239.5L0 2.05531e-06H389L778 2.05531e-06V239.5V479L389 479ZM768.124 212C766.993 212 764.908 213.976 762.874 216.974C761.018 219.71 759.231 221.96 758.903 221.974C758.575 221.989 758.027 216.938 757.685 210.75C756.736 193.562 751.256 176.824 741.724 162C735.223 151.891 734.645 151.85 731.473 161.266C727.488 173.099 722.151 180.387 712.797 186.772C703.373 193.205 686.759 197.355 670.5 197.338C654.177 197.319 647.833 195.417 604.803 177.629C596.17 174.06 583.345 169.202 576.303 166.833L563.5 162.526L547 162.631C535.134 162.706 529.164 163.166 525.745 164.271C520.335 166.019 520.704 166.477 519.563 156.601C519.01 151.806 517.644 149 515.865 149C515.375 149 513.875 151.487 512.531 154.526C508.17 164.387 504.336 168.596 492.549 176.459C470.021 191.489 453.473 212.543 445.577 236.225C443.173 243.435 440.872 254 441.706 254C441.945 254 444.021 252.711 446.32 251.135C459.173 242.324 468.733 239.637 487.5 239.558C500.631 239.504 502.131 239.702 511.665 242.753C526.329 247.445 540.779 254.975 548.067 261.722C564.727 277.147 593.134 313.342 606.949 336.75C613.226 347.385 614.242 346.684 613.834 331.999C613.65 325.398 613.612 319.998 613.748 319.999C613.884 319.999 616.164 321.558 618.815 323.462C625.873 328.533 637.321 333.679 646.957 336.112C654.185 337.937 657.308 338.172 668.457 337.732C697.797 336.573 719.2 326.778 734.516 307.5C746.288 292.683 761.338 255.602 768 225C770.447 213.764 770.464 212 768.124 212H768.124ZM441.352 307.5C440.51 304.2 437.861 295.382 435.466 287.903C429.634 269.691 428.735 263.791 429.208 246.795C429.58 233.432 429.817 231.986 432.847 224.613C438.56 210.712 441.091 200.389 441.702 188.5C442.866 165.874 438.383 150.592 428.857 144.711C410.18 133.18 364.213 145.031 331.342 169.852C303.152 191.138 287.068 209.077 282.51 224.313C281.24 228.56 281.257 230.03 282.654 236.813C283.526 241.041 285.09 246.667 286.131 249.316C290.642 260.799 302.903 276.13 319.381 290.894C325.496 296.373 334.325 304.523 339 309.005C350.127 319.674 369.994 334.203 379.391 338.545C390.947 343.884 398.368 345.249 413.524 344.822C425.324 344.49 427.081 344.195 432.222 341.68C438.14 338.784 441.558 334.686 443.097 328.642C444.109 324.665 443.333 315.26 441.352 307.5V307.5ZM350.047 333.392C347.064 326.619 338.62 321.404 329.393 320.635C314.075 319.359 279.319 328.246 268.616 336.175C262.564 340.659 256.87 348.284 254.449 355.145C253.63 357.467 252.861 363.637 252.733 368.925C252.521 377.613 252.755 379.021 255.261 384.121C258.235 390.178 262.37 393.699 270 396.671C273.573 398.063 277.486 398.415 289 398.382C301.817 398.345 304.462 398.035 311.789 395.711C316.349 394.265 322.395 391.826 325.225 390.291C336.609 384.118 348.61 368.092 351.655 355C353.208 348.32 352.514 338.992 350.047 333.392ZM344.393 108.036C334.169 86.8335 316.362 76.3956 288.5 75.2738C265.507 74.348 254.089 80.3958 250.077 95.6247C248.397 102.001 250.216 116.499 253.529 123.141C258.805 133.719 267.693 140.737 281.382 145.132C328.662 160.313 351.429 153.411 349.439 124.5C349.049 118.832 348.088 115.699 344.393 108.036V108.036ZM306.25 403.532C302.94 404.944 281.14 405.288 274.721 404.03C255.777 400.317 246 388.227 246 368.515V361.24L240.25 356.93C231.09 350.064 220.283 340.052 215.901 334.372L211.858 329.131L203.53 329.1C185.773 329.034 172.048 324.049 161.335 313.773C153.417 306.179 151.104 301.922 150.317 293.495L149.718 287.074L142.609 293.664C128.838 306.43 114.047 316.509 88.5 330.537C66.6242 342.55 35.7737 360.456 28.5 365.363C15.7887 373.937 8.99999 383.057 8.99999 391.559C8.99999 397.707 11.2634 402.181 16.8764 407.127C26.3138 415.444 54.455 426.591 85.8899 434.464C123.466 443.875 145.201 446.332 191.748 446.429C210.584 446.468 225.997 446.754 225.998 447.064C225.999 447.375 223.225 450.926 219.833 454.955C214.194 461.655 213.815 462.392 215.416 463.562C216.851 464.611 218.101 464.565 222.332 463.309C240.746 457.84 258.397 447.687 271.296 435.145L279.091 427.564L278.408 438.138C277.649 449.869 278.614 452.344 282.208 447.894C289.42 438.962 307.774 407.422 307.958 403.643C307.981 403.172 307.213 403.122 306.25 403.532V403.532ZM301.552 62.5445C294.293 46.6158 279.456 24 276.265 24C274.897 24 274.785 25.4091 275.376 35.1435L276.053 46.2871L266.706 37.3935C253.997 25.3002 236.729 15.4654 219.316 10.4035C214.372 8.96612 213.616 8.95576 212.265 10.3068C210.914 11.6578 211.408 12.583 216.876 18.9357C220.244 22.8493 223 26.3286 223 26.6674C223 27.006 217.713 26.9837 211.25 26.6178C187.855 25.2925 138.123 28.4964 111.649 33.0342C72.9018 39.6761 26.5247 55.7443 13.8172 66.9299C-0.083832 79.1661 4.37611 94.1379 26.2993 108.832C34.1477 114.092 59.7559 129.149 72.5 135.996C108.577 155.379 125.037 166.229 139.61 180.234L146.721 187.067L147.228 180.754C147.879 172.637 150.325 167.979 157.999 160.238C166.305 151.86 175.008 147.711 188.797 145.554C194.747 144.623 201.1 144.21 203.846 144.574L208.599 145.205L212.845 139.701C217.299 133.928 230.175 122.03 238.25 116.226L243 112.813V105.512C243 94.2498 245.95 86.0256 252.319 79.5354C259.754 71.9573 265.925 69.818 282 69.2446C288.875 68.9993 296.863 69.2332 299.75 69.7629C302.638 70.2932 305 70.5885 305 70.419C305 70.2497 303.448 66.7061 301.552 62.5447V62.5445ZM275.203 273.492C270.754 260.626 256.908 251.373 236.166 247.405C212.011 242.783 185.399 250.987 165.473 269.198C159.467 274.688 157.237 279.858 156.934 289C156.607 298.871 156.835 299.645 161.777 305.436C167.981 312.706 174.632 317.363 182.865 320.2C188.821 322.252 191.342 322.486 207.5 322.482C234.556 322.475 246.28 319.406 260.723 308.549C274.771 297.989 279.617 286.256 275.203 273.492V273.492ZM271.068 180.133C265.224 168.678 247.056 155.547 234.5 153.705C232.3 153.382 227.8 152.639 224.5 152.053C216.732 150.675 193.072 150.635 186.004 151.989C174.388 154.214 161.887 162.612 155.355 172.581C153.235 175.817 153.348 187.986 155.56 194.596C157.592 200.666 159.416 202.722 169.5 210.299C185.357 222.215 201.135 227.515 220.5 227.431C233.586 227.375 241.172 225.621 252.648 219.997C262.398 215.219 270.139 207.484 272.48 200.18C274.427 194.107 273.823 185.533 271.068 180.133V180.133Z" fill="#010001"/>
</svg>
